<svg width="31" height="31" viewBox="0 0 31 31" fill="none" xmlns="http://www.w3.org/2000/svg">
<rect width="30" height="30" transform="translate(0.5 0.5)" fill="white"/>
<path fill-rule="evenodd" clip-rule="evenodd" d="M8 14V11C8 9.01088 8.79018 7.10322 10.1967 5.6967C11.6032 4.29018 13.5109 3.5 15.5 3.5C17.4891 3.5 19.3968 4.29018 20.8033 5.6967C22.2098 7.10322 23 9.01088 23 11V14C23.7956 14 24.5587 14.3161 25.1213 14.8787C25.6839 15.4413 26 16.2044 26 17V24.5C26 25.2956 25.6839 26.0587 25.1213 26.6213C24.5587 27.1839 23.7956 27.5 23 27.5H8C7.20435 27.5 6.44129 27.1839 5.87868 26.6213C5.31607 26.0587 5 25.2956 5 24.5V17C5 16.2044 5.31607 15.4413 5.87868 14.8787C6.44129 14.3161 7.20435 14 8 14ZM20 11V14H11V11C11 9.80653 11.4741 8.66193 12.318 7.81802C13.1619 6.97411 14.3065 6.5 15.5 6.5C16.6935 6.5 17.8381 6.97411 18.682 7.81802C19.5259 8.66193 20 9.80653 20 11Z" fill="black"/>
</svg>
