<svg width="31" height="31" viewBox="0 0 31 31" fill="none" xmlns="http://www.w3.org/2000/svg">
<path fill-rule="evenodd" clip-rule="evenodd" d="M15.5 14C16.6935 14 17.8381 13.5259 18.682 12.682C19.5259 11.8381 20 10.6935 20 9.5C20 8.30653 19.5259 7.16193 18.682 6.31802C17.8381 5.47411 16.6935 5 15.5 5C14.3065 5 13.1619 5.47411 12.318 6.31802C11.4741 7.16193 11 8.30653 11 9.5C11 10.6935 11.4741 11.8381 12.318 12.682C13.1619 13.5259 14.3065 14 15.5 14ZM5 27.5C5 26.1211 5.27159 24.7557 5.79927 23.4818C6.32694 22.2079 7.10036 21.0504 8.07538 20.0754C9.05039 19.1004 10.2079 18.3269 11.4818 17.7993C12.7557 17.2716 14.1211 17 15.5 17C16.8789 17 18.2443 17.2716 19.5182 17.7993C20.7921 18.3269 21.9496 19.1004 22.9246 20.0754C23.8996 21.0504 24.6731 22.2079 25.2007 23.4818C25.7284 24.7557 26 26.1211 26 27.5H5Z" fill="black"/>
</svg>
