<svg width="27" height="27" viewBox="0 0 27 27" fill="none" xmlns="http://www.w3.org/2000/svg">
<path d="M21.6156 11.2523L14.3711 2.96557C14.1398 2.70091 14.0005 2.32922 14.0005 1.92988C14.0005 1.53054 14.1398 1.15886 14.3711 0.894196C14.6006 0.631846 14.8962 0.5 15.1877 0.5C15.4792 0.5 15.7749 0.631865 16.0043 0.894252C16.0044 0.894271 16.0044 0.89429 16.0044 0.894309L26.1294 12.476C26.3607 12.7406 26.5 13.1123 26.5 13.5117C26.5 13.911 26.3607 14.2827 26.1294 14.5473L16.0074 26.1255C15.7777 26.3778 15.4859 26.5028 15.1987 26.5C14.9103 26.4971 14.6185 26.3651 14.3916 26.1055C14.1629 25.8439 14.024 25.4775 14.021 25.0827C14.018 24.6894 14.1503 24.3209 14.3741 24.0543L21.6156 15.771L22.3404 14.9419H21.2392H1.68752C1.39592 14.9419 1.1002 14.81 0.870696 14.5475C0.639316 14.2828 0.5 13.9111 0.5 13.5117C0.5 13.1122 0.639316 12.7405 0.870696 12.4758C1.1002 12.2133 1.39592 12.0814 1.68752 12.0814H21.2392H22.3404L21.6156 11.2523Z" fill="black" stroke="black"/>
</svg>
