<svg width="31" height="31" viewBox="0 0 31 31" fill="none" xmlns="http://www.w3.org/2000/svg">
<g clip-path="url(#clip0_232_1730)">
<path d="M30.4052 15.9976C30.4052 7.66131 23.6889 0.903809 15.4052 0.903809C7.11768 0.905684 0.401428 7.66131 0.401428 15.9994C0.401428 23.5313 5.88768 29.7751 13.0577 30.9076V20.3607H9.25143V15.9994H13.0614V12.6713C13.0614 8.88943 15.3021 6.80068 18.7277 6.80068C20.3702 6.80068 22.0858 7.09506 22.0858 7.09506V10.8076H20.1939C18.3321 10.8076 17.7508 11.9719 17.7508 13.1663V15.9976H21.9096L21.2458 20.3588H17.7489V30.9057C24.9189 29.7732 30.4052 23.5294 30.4052 15.9976Z" fill="white"/>
</g>
<defs>
<clipPath id="clip0_232_1730">
<rect width="30" height="30" fill="white" transform="translate(0.405151 0.905762)"/>
</clipPath>
</defs>
</svg>
