<svg width="31" height="31" viewBox="0 0 31 31" fill="none" xmlns="http://www.w3.org/2000/svg">
<g clip-path="url(#clip0_232_1649)">
<path d="M30.3715 15.9854C30.3715 7.6491 23.6552 0.891602 15.3715 0.891602C7.08396 0.893477 0.367706 7.6491 0.367706 15.9872C0.367706 23.5191 5.85396 29.7629 13.024 30.8954V20.3485H9.21771V15.9872H13.0277V12.6591C13.0277 8.87723 15.2683 6.78848 18.694 6.78848C20.3365 6.78848 22.0521 7.08285 22.0521 7.08285V10.7954H20.1602C18.2983 10.7954 17.7171 11.9597 17.7171 13.1541V15.9854H21.8758L21.2121 20.3466H17.7152V30.8935C24.8852 29.761 30.3715 23.5172 30.3715 15.9854Z" fill="white"/>
</g>
<defs>
<clipPath id="clip0_232_1649">
<rect width="30" height="30" fill="white" transform="translate(0.37146 0.893555)"/>
</clipPath>
</defs>
</svg>
