<svg width="31" height="31" viewBox="0 0 31 31" fill="none" xmlns="http://www.w3.org/2000/svg">
<g clip-path="url(#clip0_232_1577)">
<path d="M30.3098 16.0398C30.3098 7.70355 23.5935 0.946045 15.3097 0.946045C7.02225 0.94792 0.306 7.70355 0.306 16.0417C0.306 23.5735 5.79225 29.8173 12.9622 30.9498V20.4029H9.156V16.0417H12.966V12.7135C12.966 8.93167 15.2066 6.84292 18.6323 6.84292C20.2748 6.84292 21.9904 7.1373 21.9904 7.1373V10.8498H20.0985C18.2366 10.8498 17.6554 12.0142 17.6554 13.2085V16.0398H21.8141L21.1504 20.401H17.6535V30.9479C24.8235 29.8154 30.3098 23.5717 30.3098 16.0398Z" fill="white"/>
</g>
<defs>
<clipPath id="clip0_232_1577">
<rect width="30" height="30" fill="white" transform="translate(0.309753 0.947998)"/>
</clipPath>
</defs>
</svg>
