<svg width="31" height="31" viewBox="0 0 31 31" fill="none" xmlns="http://www.w3.org/2000/svg">
<g clip-path="url(#clip0_232_1583)">
<path d="M15.3098 0.947998C7.02225 0.947998 0.309753 7.6605 0.309753 15.948C0.309753 22.5855 4.6035 28.1917 10.566 30.1792C11.316 30.3105 11.5973 29.8605 11.5973 29.4667C11.5973 29.1105 11.5785 27.9292 11.5785 26.673C7.80975 27.3667 6.83475 25.7542 6.53475 24.9105C6.366 24.4792 5.63475 23.148 4.99725 22.7917C4.47225 22.5105 3.72225 21.8167 4.9785 21.798C6.15975 21.7792 7.0035 22.8855 7.28475 23.3355C8.63475 25.6042 10.791 24.9667 11.6535 24.573C11.7848 23.598 12.1785 22.9417 12.6098 22.5667C9.27225 22.1917 5.78475 20.898 5.78475 15.1605C5.78475 13.5292 6.366 12.1792 7.32225 11.1292C7.17225 10.7542 6.64725 9.21675 7.47225 7.15425C7.47225 7.15425 8.7285 6.7605 11.5973 8.69175C12.7973 8.35425 14.0723 8.1855 15.3473 8.1855C16.6223 8.1855 17.8973 8.35425 19.0973 8.69175C21.966 6.74175 23.2223 7.15425 23.2223 7.15425C24.0473 9.21675 23.5223 10.7542 23.3723 11.1292C24.3285 12.1792 24.9098 13.5105 24.9098 15.1605C24.9098 20.9167 21.4035 22.1917 18.066 22.5667C18.6098 23.0355 19.0785 23.9355 19.0785 25.3417C19.0785 27.348 19.0598 28.9605 19.0598 29.4667C19.0598 29.8605 19.341 30.3292 20.091 30.1792C23.0689 29.1742 25.6566 27.2605 27.4898 24.7075C29.323 22.1546 30.3092 19.0909 30.3098 15.948C30.3098 7.6605 23.5973 0.947998 15.3098 0.947998Z" fill="white"/>
</g>
<defs>
<clipPath id="clip0_232_1583">
<rect width="30" height="30" fill="white" transform="translate(0.309753 0.947998)"/>
</clipPath>
</defs>
</svg>
