<svg width="31" height="31" viewBox="0 0 31 31" fill="none" xmlns="http://www.w3.org/2000/svg">
<g clip-path="url(#clip0_232_1736)">
<path d="M15.4052 0.905762C7.11765 0.905762 0.405151 7.61826 0.405151 15.9058C0.405151 22.5433 4.6989 28.1495 10.6614 30.137C11.4114 30.2683 11.6927 29.8183 11.6927 29.4245C11.6927 29.0683 11.6739 27.887 11.6739 26.6308C7.90515 27.3245 6.93015 25.712 6.63015 24.8683C6.4614 24.437 5.73015 23.1058 5.09265 22.7495C4.56765 22.4683 3.81765 21.7745 5.0739 21.7558C6.25515 21.737 7.0989 22.8433 7.38015 23.2933C8.73015 25.562 10.8864 24.9245 11.7489 24.5308C11.8802 23.5558 12.2739 22.8995 12.7052 22.5245C9.36765 22.1495 5.88015 20.8558 5.88015 15.1183C5.88015 13.487 6.4614 12.137 7.41765 11.087C7.26765 10.712 6.74265 9.17451 7.56765 7.11201C7.56765 7.11201 8.8239 6.71826 11.6927 8.64951C12.8927 8.31201 14.1677 8.14326 15.4427 8.14326C16.7177 8.14326 17.9927 8.31201 19.1927 8.64951C22.0614 6.69951 23.3177 7.11201 23.3177 7.11201C24.1427 9.17451 23.6177 10.712 23.4677 11.087C24.4239 12.137 25.0052 13.4683 25.0052 15.1183C25.0052 20.8745 21.4989 22.1495 18.1614 22.5245C18.7052 22.9933 19.1739 23.8933 19.1739 25.2995C19.1739 27.3058 19.1552 28.9183 19.1552 29.4245C19.1552 29.8183 19.4364 30.287 20.1864 30.137C23.1643 29.132 25.752 27.2183 27.5852 24.6653C29.4184 22.1123 30.4046 19.0487 30.4052 15.9058C30.4052 7.61826 23.6927 0.905762 15.4052 0.905762Z" fill="white"/>
</g>
<defs>
<clipPath id="clip0_232_1736">
<rect width="30" height="30" fill="white" transform="translate(0.405151 0.905762)"/>
</clipPath>
</defs>
</svg>
