<svg width="31" height="31" viewBox="0 0 31 31" fill="none" xmlns="http://www.w3.org/2000/svg">
<g clip-path="url(#clip0_232_1655)">
<path d="M15.3715 0.893555C7.08396 0.893555 0.37146 7.60605 0.37146 15.8936C0.37146 22.5311 4.66521 28.1373 10.6277 30.1248C11.3777 30.2561 11.659 29.8061 11.659 29.4123C11.659 29.0561 11.6402 27.8748 11.6402 26.6186C7.87146 27.3123 6.89646 25.6998 6.59646 24.8561C6.42771 24.4248 5.69646 23.0936 5.05896 22.7373C4.53396 22.4561 3.78396 21.7623 5.04021 21.7436C6.22146 21.7248 7.06521 22.8311 7.34646 23.2811C8.69646 25.5498 10.8527 24.9123 11.7152 24.5186C11.8465 23.5436 12.2402 22.8873 12.6715 22.5123C9.33396 22.1373 5.84646 20.8436 5.84646 15.1061C5.84646 13.4748 6.42771 12.1248 7.38396 11.0748C7.23396 10.6998 6.70896 9.1623 7.53396 7.0998C7.53396 7.0998 8.79021 6.70605 11.659 8.6373C12.859 8.2998 14.134 8.13105 15.409 8.13105C16.684 8.13105 17.959 8.2998 19.159 8.6373C22.0277 6.6873 23.284 7.0998 23.284 7.0998C24.109 9.1623 23.584 10.6998 23.434 11.0748C24.3902 12.1248 24.9715 13.4561 24.9715 15.1061C24.9715 20.8623 21.4652 22.1373 18.1277 22.5123C18.6715 22.9811 19.1402 23.8811 19.1402 25.2873C19.1402 27.2936 19.1215 28.9061 19.1215 29.4123C19.1215 29.8061 19.4027 30.2748 20.1527 30.1248C23.1306 29.1198 25.7183 27.2061 27.5515 24.6531C29.3847 22.1001 30.3709 19.0365 30.3715 15.8936C30.3715 7.60605 23.659 0.893555 15.3715 0.893555Z" fill="white"/>
</g>
<defs>
<clipPath id="clip0_232_1655">
<rect width="30" height="30" fill="white" transform="translate(0.37146 0.893555)"/>
</clipPath>
</defs>
</svg>
