<svg width="24" height="25" viewBox="0 0 24 25" fill="none" xmlns="http://www.w3.org/2000/svg">
<path d="M12.1345 14.0318C12.1122 14.0318 12.0787 14.0318 12.0564 14.0318C12.0229 14.0318 11.9782 14.0318 11.9447 14.0318C9.41074 13.9537 7.51306 11.9779 7.51306 9.54444C7.51306 7.06633 9.53353 5.0459 12.0117 5.0459C14.4898 5.0459 16.5103 7.06633 16.5103 9.54444C16.4991 11.9891 14.5903 13.9537 12.168 14.0318C12.1457 14.0318 12.1457 14.0318 12.1345 14.0318ZM12.0005 6.70913C10.4377 6.70913 9.17632 7.98167 9.17632 9.53328C9.17632 11.0626 10.3708 12.3016 11.8889 12.3574C11.9224 12.3463 12.034 12.3463 12.1457 12.3574C13.6415 12.2793 14.8136 11.0514 14.8247 9.53328C14.8247 7.98167 13.5633 6.70913 12.0005 6.70913Z" fill="white"/>
<path d="M12.0009 24.3243C8.99808 24.3243 6.12925 23.2081 3.90785 21.1765C3.70692 20.9979 3.61762 20.73 3.63995 20.4732C3.78506 19.1449 4.61111 17.9058 5.98413 16.9905C9.31064 14.7803 14.7023 14.7803 18.0176 16.9905C19.3906 17.917 20.2167 19.1449 20.3618 20.4732C20.3953 20.7411 20.2948 20.9979 20.0939 21.1765C17.8725 23.2081 15.0037 24.3243 12.0009 24.3243ZM5.3925 20.25C7.24553 21.8016 9.57855 22.6499 12.0009 22.6499C14.4232 22.6499 16.7562 21.8016 18.6092 20.25C18.4083 19.569 17.8725 18.9104 17.0799 18.3746C14.3339 16.544 9.67902 16.544 6.91064 18.3746C6.11809 18.9104 5.59343 19.569 5.3925 20.25Z" fill="white"/>
<path d="M12 24.3238C5.38047 24.3238 0 18.9434 0 12.324C0 5.70455 5.38047 0.324158 12 0.324158C18.6195 0.324158 24 5.70455 24 12.324C24 18.9434 18.6195 24.3238 12 24.3238ZM12 1.99855C6.30698 1.99855 1.67442 6.63104 1.67442 12.324C1.67442 18.0169 6.30698 22.6494 12 22.6494C17.693 22.6494 22.3256 18.0169 22.3256 12.324C22.3256 6.63104 17.693 1.99855 12 1.99855Z" fill="white"/>
</svg>
