<svg width="24" height="25" viewBox="0 0 24 25" fill="none" xmlns="http://www.w3.org/2000/svg">
<path d="M12.1345 14.6985C12.1122 14.6985 12.0787 14.6985 12.0564 14.6985C12.0229 14.6985 11.9782 14.6985 11.9447 14.6985C9.41074 14.6203 7.51306 12.6445 7.51306 10.2111C7.51306 7.73296 9.53353 5.71252 12.0117 5.71252C14.4898 5.71252 16.5103 7.73296 16.5103 10.2111C16.4991 12.6557 14.5903 14.6203 12.168 14.6985C12.1457 14.6985 12.1457 14.6985 12.1345 14.6985ZM12.0005 7.37576C10.4377 7.37576 9.17632 8.6483 9.17632 10.1999C9.17632 11.7292 10.3708 12.9683 11.8889 13.0241C11.9224 13.0129 12.034 13.0129 12.1457 13.0241C13.6415 12.9459 14.8136 11.718 14.8247 10.1999C14.8247 8.6483 13.5633 7.37576 12.0005 7.37576Z" fill="white"/>
<path d="M12.0009 24.991C8.99808 24.991 6.12925 23.8747 3.90785 21.8431C3.70692 21.6645 3.61762 21.3966 3.63995 21.1399C3.78506 19.8115 4.61111 18.5725 5.98413 17.6571C9.31064 15.4469 14.7023 15.4469 18.0176 17.6571C19.3906 18.5836 20.2167 19.8115 20.3618 21.1399C20.3953 21.4078 20.2948 21.6645 20.0939 21.8431C17.8725 23.8747 15.0037 24.991 12.0009 24.991ZM5.3925 20.9166C7.24553 22.4682 9.57855 23.3166 12.0009 23.3166C14.4232 23.3166 16.7562 22.4682 18.6092 20.9166C18.4083 20.2357 17.8725 19.5771 17.0799 19.0413C14.3339 17.2106 9.67902 17.2106 6.91064 19.0413C6.11809 19.5771 5.59343 20.2357 5.3925 20.9166Z" fill="white"/>
<path d="M12 24.9905C5.38047 24.9905 0 19.6101 0 12.9906C0 6.3712 5.38047 0.990814 12 0.990814C18.6195 0.990814 24 6.3712 24 12.9906C24 19.6101 18.6195 24.9905 12 24.9905ZM12 2.66521C6.30698 2.66521 1.67442 7.2977 1.67442 12.9906C1.67442 18.6836 6.30698 23.3161 12 23.3161C17.693 23.3161 22.3256 18.6836 22.3256 12.9906C22.3256 7.2977 17.693 2.66521 12 2.66521Z" fill="white"/>
</svg>
