<svg width="24" height="25" viewBox="0 0 24 25" fill="none" xmlns="http://www.w3.org/2000/svg">
<path d="M12.1345 14.3651C12.1122 14.3651 12.0787 14.3651 12.0564 14.3651C12.0229 14.3651 11.9782 14.3651 11.9447 14.3651C9.41074 14.287 7.51306 12.3112 7.51306 9.87772C7.51306 7.39962 9.53353 5.37918 12.0117 5.37918C14.4898 5.37918 16.5103 7.39962 16.5103 9.87772C16.4991 12.3224 14.5903 14.287 12.168 14.3651C12.1457 14.3651 12.1457 14.3651 12.1345 14.3651ZM12.0005 7.04241C10.4377 7.04241 9.17632 8.31495 9.17632 9.86656C9.17632 11.3959 10.3708 12.6349 11.8889 12.6907C11.9224 12.6796 12.034 12.6796 12.1457 12.6907C13.6415 12.6126 14.8136 11.3847 14.8247 9.86656C14.8247 8.31495 13.5633 7.04241 12.0005 7.04241Z" fill="white"/>
<path d="M12.0009 24.6576C8.99808 24.6576 6.12925 23.5414 3.90785 21.5098C3.70692 21.3312 3.61762 21.0633 3.63995 20.8065C3.78506 19.4782 4.61111 18.2391 5.98413 17.3238C9.31064 15.1136 14.7023 15.1136 18.0176 17.3238C19.3906 18.2503 20.2167 19.4782 20.3618 20.8065C20.3953 21.0744 20.2948 21.3312 20.0939 21.5098C17.8725 23.5414 15.0037 24.6576 12.0009 24.6576ZM5.3925 20.5833C7.24553 22.1349 9.57855 22.9832 12.0009 22.9832C14.4232 22.9832 16.7562 22.1349 18.6092 20.5833C18.4083 19.9024 17.8725 19.2438 17.0799 18.708C14.3339 16.8773 9.67902 16.8773 6.91064 18.708C6.11809 19.2438 5.59343 19.9024 5.3925 20.5833Z" fill="white"/>
<path d="M12 24.6571C5.38047 24.6571 0 19.2767 0 12.6573C0 6.03786 5.38047 0.657471 12 0.657471C18.6195 0.657471 24 6.03786 24 12.6573C24 19.2767 18.6195 24.6571 12 24.6571ZM12 2.33187C6.30698 2.33187 1.67442 6.96436 1.67442 12.6573C1.67442 18.3502 6.30698 22.9827 12 22.9827C17.693 22.9827 22.3256 18.3502 22.3256 12.6573C22.3256 6.96436 17.693 2.33187 12 2.33187Z" fill="white"/>
</svg>
