<svg width="31" height="31" viewBox="0 0 31 31" fill="none" xmlns="http://www.w3.org/2000/svg">
<g clip-path="url(#clip0_232_1734)">
<path d="M15.4052 0.905762C11.3345 0.905762 10.8227 0.924512 9.22328 0.995762C7.6239 1.07076 6.53453 1.32201 5.58015 1.69326C4.57908 2.0698 3.67232 2.66044 2.92328 3.42389C2.16029 4.17332 1.56973 5.07996 1.19265 6.08076C0.821401 7.03326 0.568276 8.12451 0.495151 9.71826C0.423901 11.3214 0.405151 11.8314 0.405151 15.9076C0.405151 19.9801 0.423901 20.4901 0.495151 22.0895C0.570151 23.687 0.821401 24.7764 1.19265 25.7308C1.57703 26.717 2.0889 27.5533 2.92328 28.3876C3.75578 29.222 4.59203 29.7358 5.57828 30.1183C6.53453 30.4895 7.62203 30.7426 9.21953 30.8158C10.8208 30.887 11.3308 30.9058 15.4052 30.9058C19.4795 30.9058 19.9877 30.887 21.5889 30.8158C23.1845 30.7408 24.2777 30.4895 25.232 30.1183C26.2325 29.7415 27.1386 29.1509 27.887 28.3876C28.7214 27.5533 29.2333 26.717 29.6177 25.7308C29.987 24.7764 30.2402 23.687 30.3152 22.0895C30.3864 20.4901 30.4052 19.9801 30.4052 15.9058C30.4052 11.8314 30.3864 11.3214 30.3152 9.72014C30.2402 8.12451 29.987 7.03326 29.6177 6.08076C29.2406 5.07993 28.6501 4.17328 27.887 3.42389C27.1382 2.66015 26.2314 2.06947 25.2302 1.69326C24.2739 1.32201 23.1827 1.06889 21.587 0.995762C19.9858 0.924512 19.4777 0.905762 15.4014 0.905762H15.407H15.4052ZM14.0608 3.60951H15.407C19.412 3.60951 19.8864 3.62264 21.467 3.69576C22.9295 3.76139 23.7245 4.00701 24.2533 4.21139C24.9527 4.48326 25.4533 4.80951 25.9783 5.33451C26.5033 5.85951 26.8277 6.35826 27.0995 7.05951C27.3058 7.58639 27.5495 8.38139 27.6152 9.84389C27.6883 11.4245 27.7033 11.8989 27.7033 15.902C27.7033 19.9051 27.6883 20.3814 27.6152 21.962C27.5495 23.4245 27.3039 24.2176 27.0995 24.7464C26.859 25.3977 26.4752 25.9866 25.9764 26.4695C25.4514 26.9945 24.9527 27.3189 24.2514 27.5908C23.7264 27.797 22.9314 28.0408 21.467 28.1083C19.8864 28.1795 19.412 28.1964 15.407 28.1964C11.402 28.1964 10.9258 28.1795 9.34515 28.1083C7.88265 28.0408 7.08953 27.797 6.56078 27.5908C5.90921 27.3506 5.31976 26.9675 4.83578 26.4695C4.33656 25.9858 3.95213 25.3964 3.71078 24.7445C3.5064 24.2176 3.26078 23.4226 3.19515 21.9601C3.1239 20.3795 3.1089 19.9051 3.1089 15.8983C3.1089 11.8933 3.1239 11.4208 3.19515 9.84014C3.26265 8.37764 3.5064 7.58264 3.71265 7.05389C3.98453 6.35451 4.31078 5.85389 4.83578 5.32889C5.36078 4.80389 5.85953 4.47951 6.56078 4.20764C7.08953 4.00139 7.88265 3.75764 9.34515 3.69014C10.7289 3.62639 11.2652 3.60764 14.0608 3.60576V3.60951ZM23.4133 6.09951C23.1769 6.09951 22.9428 6.14607 22.7244 6.23653C22.5061 6.32699 22.3076 6.45957 22.1405 6.62672C21.9733 6.79386 21.8408 6.9923 21.7503 7.21068C21.6598 7.42907 21.6133 7.66313 21.6133 7.89951C21.6133 8.13589 21.6598 8.36996 21.7503 8.58834C21.8408 8.80673 21.9733 9.00516 22.1405 9.1723C22.3076 9.33945 22.5061 9.47204 22.7244 9.56249C22.9428 9.65295 23.1769 9.69951 23.4133 9.69951C23.8907 9.69951 24.3485 9.50987 24.6861 9.1723C25.0236 8.83474 25.2133 8.3769 25.2133 7.89951C25.2133 7.42212 25.0236 6.96429 24.6861 6.62672C24.3485 6.28915 23.8907 6.09951 23.4133 6.09951ZM15.407 8.20326C14.3853 8.18732 13.3706 8.3748 12.422 8.75478C11.4734 9.13476 10.6099 9.69964 9.88168 10.4166C9.1535 11.1335 8.57521 11.9881 8.18048 12.9306C7.78575 13.8732 7.58246 14.8848 7.58246 15.9067C7.58246 16.9286 7.78575 17.9402 8.18048 18.8828C8.57521 19.8253 9.1535 20.6799 9.88168 21.3968C10.6099 22.1138 11.4734 22.6786 12.422 23.0586C13.3706 23.4386 14.3853 23.6261 15.407 23.6101C17.4293 23.5786 19.3581 22.7531 20.777 21.3119C22.1959 19.8706 22.9912 17.9292 22.9912 15.9067C22.9912 13.8842 22.1959 11.9428 20.777 10.5015C19.3581 9.0603 17.4293 8.23481 15.407 8.20326ZM15.407 10.9051C16.7333 10.9051 18.0052 11.432 18.943 12.3698C19.8808 13.3076 20.4077 14.5795 20.4077 15.9058C20.4077 17.232 19.8808 18.5039 18.943 19.4417C18.0052 20.3795 16.7333 20.9064 15.407 20.9064C14.0808 20.9064 12.8088 20.3795 11.8711 19.4417C10.9333 18.5039 10.4064 17.232 10.4064 15.9058C10.4064 14.5795 10.9333 13.3076 11.8711 12.3698C12.8088 11.432 14.0808 10.9051 15.407 10.9051Z" fill="white"/>
</g>
<defs>
<clipPath id="clip0_232_1734">
<rect width="30" height="30" fill="white" transform="translate(0.405151 0.905762)"/>
</clipPath>
</defs>
</svg>
