<svg width="31" height="31" viewBox="0 0 31 31" fill="none" xmlns="http://www.w3.org/2000/svg">
<g clip-path="url(#clip0_232_1581)">
<path d="M15.3098 0.947998C11.2391 0.947998 10.7273 0.966748 9.12788 1.038C7.5285 1.113 6.43913 1.36425 5.48475 1.7355C4.48368 2.11203 3.57693 2.70267 2.82788 3.46612C2.0649 4.21555 1.47433 5.1222 1.09725 6.123C0.726003 7.0755 0.472878 8.16675 0.399753 9.7605C0.328503 11.3636 0.309753 11.8736 0.309753 15.9499C0.309753 20.0224 0.328503 20.5324 0.399753 22.1317C0.474753 23.7292 0.726003 24.8186 1.09725 25.773C1.48163 26.7592 1.9935 27.5955 2.82788 28.4299C3.66038 29.2642 4.49663 29.778 5.48288 30.1605C6.43913 30.5317 7.52663 30.7849 9.12413 30.858C10.7254 30.9292 11.2354 30.948 15.3098 30.948C19.3841 30.948 19.8923 30.9292 21.4935 30.858C23.0891 30.783 24.1823 30.5317 25.1366 30.1605C26.1371 29.7838 27.0432 29.1931 27.7916 28.4299C28.626 27.5955 29.1379 26.7592 29.5223 25.773C29.8916 24.8186 30.1448 23.7292 30.2198 22.1317C30.291 20.5324 30.3098 20.0224 30.3098 15.948C30.3098 11.8736 30.291 11.3636 30.2198 9.76237C30.1448 8.16675 29.8916 7.0755 29.5223 6.123C29.1452 5.12217 28.5547 4.21552 27.7916 3.46612C27.0428 2.70239 26.136 2.11171 25.1348 1.7355C24.1785 1.36425 23.0873 1.11112 21.4916 1.038C19.8904 0.966748 19.3823 0.947998 15.306 0.947998H15.3116H15.3098ZM13.9654 3.65175H15.3116C19.3166 3.65175 19.791 3.66487 21.3716 3.738C22.8341 3.80362 23.6291 4.04925 24.1579 4.25362C24.8573 4.5255 25.3579 4.85175 25.8829 5.37675C26.4079 5.90175 26.7323 6.4005 27.0041 7.10175C27.2104 7.62862 27.4541 8.42362 27.5198 9.88612C27.5929 11.4667 27.6079 11.9411 27.6079 15.9442C27.6079 19.9474 27.5929 20.4236 27.5198 22.0042C27.4541 23.4667 27.2085 24.2599 27.0041 24.7886C26.7636 25.4399 26.3798 26.0288 25.881 26.5117C25.356 27.0367 24.8573 27.3611 24.156 27.633C23.631 27.8392 22.836 28.083 21.3716 28.1505C19.791 28.2217 19.3166 28.2386 15.3116 28.2386C11.3066 28.2386 10.8304 28.2217 9.24975 28.1505C7.78725 28.083 6.99413 27.8392 6.46538 27.633C5.81381 27.3929 5.22436 27.0097 4.74038 26.5117C4.24116 26.0281 3.85673 25.4386 3.61538 24.7867C3.411 24.2599 3.16538 23.4649 3.09975 22.0024C3.0285 20.4217 3.0135 19.9474 3.0135 15.9405C3.0135 11.9355 3.0285 11.463 3.09975 9.88237C3.16725 8.41987 3.411 7.62487 3.61725 7.09612C3.88913 6.39675 4.21538 5.89612 4.74038 5.37112C5.26538 4.84612 5.76413 4.52175 6.46538 4.24987C6.99413 4.04362 7.78725 3.79987 9.24975 3.73237C10.6335 3.66862 11.1698 3.64987 13.9654 3.648V3.65175ZM23.3179 6.14175C23.0815 6.14175 22.8474 6.18831 22.629 6.27877C22.4107 6.36922 22.2122 6.50181 22.0451 6.66896C21.8779 6.8361 21.7454 7.03453 21.6549 7.25292C21.5644 7.4713 21.5179 7.70537 21.5179 7.94175C21.5179 8.17813 21.5644 8.41219 21.6549 8.63058C21.7454 8.84896 21.8779 9.04739 22.0451 9.21454C22.2122 9.38169 22.4107 9.51427 22.629 9.60473C22.8474 9.69519 23.0815 9.74175 23.3179 9.74175C23.7953 9.74175 24.2531 9.55211 24.5907 9.21454C24.9282 8.87697 25.1179 8.41914 25.1179 7.94175C25.1179 7.46436 24.9282 7.00652 24.5907 6.66896C24.2531 6.33139 23.7953 6.14175 23.3179 6.14175ZM15.3116 8.2455C14.2899 8.22956 13.2752 8.41703 12.3266 8.79701C11.378 9.17699 10.5145 9.74188 9.78629 10.4588C9.0581 11.1757 8.47981 12.0303 8.08508 12.9729C7.69035 13.9154 7.48707 14.9271 7.48707 15.9489C7.48707 16.9708 7.69035 17.9825 8.08508 18.925C8.47981 19.8676 9.0581 20.7222 9.78629 21.4391C10.5145 22.156 11.378 22.7209 12.3266 23.1009C13.2752 23.4808 14.2899 23.6683 15.3116 23.6524C17.3339 23.6208 19.2627 22.7953 20.6816 21.3541C22.1005 19.9128 22.8958 17.9714 22.8958 15.9489C22.8958 13.9264 22.1005 11.985 20.6816 10.5438C19.2627 9.10254 17.3339 8.27705 15.3116 8.2455ZM15.3116 10.9474C16.6379 10.9474 17.9098 11.4742 18.8476 12.412C19.7854 13.3498 20.3123 14.6217 20.3123 15.948C20.3123 17.2742 19.7854 18.5462 18.8476 19.484C17.9098 20.4218 16.6379 20.9486 15.3116 20.9486C13.9854 20.9486 12.7135 20.4218 11.7757 19.484C10.8379 18.5462 10.311 17.2742 10.311 15.948C10.311 14.6217 10.8379 13.3498 11.7757 12.412C12.7135 11.4742 13.9854 10.9474 15.3116 10.9474Z" fill="white"/>
</g>
<defs>
<clipPath id="clip0_232_1581">
<rect width="30" height="30" fill="white" transform="translate(0.309753 0.947998)"/>
</clipPath>
</defs>
</svg>
