<svg width="31" height="31" viewBox="0 0 31 31" fill="none" xmlns="http://www.w3.org/2000/svg">
<g clip-path="url(#clip0_232_1653)">
<path d="M15.3715 0.893555C11.3008 0.893555 10.789 0.912305 9.18959 0.983555C7.59021 1.05855 6.50083 1.3098 5.54646 1.68105C4.54539 2.05759 3.63863 2.64823 2.88959 3.41168C2.1266 4.16111 1.53604 5.06775 1.15896 6.06855C0.78771 7.02105 0.534585 8.1123 0.46146 9.70605C0.39021 11.3092 0.37146 11.8192 0.37146 15.8954C0.37146 19.9679 0.39021 20.4779 0.46146 22.0773C0.53646 23.6748 0.78771 24.7642 1.15896 25.7186C1.54333 26.7048 2.05521 27.5411 2.88959 28.3754C3.72209 29.2098 4.55834 29.7236 5.54459 30.1061C6.50084 30.4773 7.58834 30.7304 9.18584 30.8036C10.7871 30.8748 11.2971 30.8936 15.3715 30.8936C19.4458 30.8936 19.954 30.8748 21.5552 30.8036C23.1508 30.7286 24.244 30.4773 25.1983 30.1061C26.1988 29.7293 27.1049 29.1387 27.8533 28.3754C28.6877 27.5411 29.1996 26.7048 29.584 25.7186C29.9533 24.7642 30.2065 23.6748 30.2815 22.0773C30.3527 20.4779 30.3715 19.9679 30.3715 15.8936C30.3715 11.8192 30.3527 11.3092 30.2815 9.70793C30.2065 8.11231 29.9533 7.02105 29.584 6.06855C29.2069 5.06773 28.6164 4.16107 27.8533 3.41168C27.1045 2.64795 26.1977 2.05726 25.1965 1.68105C24.2402 1.3098 23.149 1.05668 21.5533 0.983555C19.9521 0.912305 19.444 0.893555 15.3677 0.893555H15.3733H15.3715ZM14.0271 3.5973H15.3733C19.3783 3.5973 19.8527 3.61043 21.4333 3.68355C22.8958 3.74918 23.6908 3.9948 24.2196 4.19918C24.919 4.47105 25.4196 4.7973 25.9446 5.3223C26.4696 5.8473 26.794 6.34605 27.0658 7.0473C27.2721 7.57418 27.5158 8.36918 27.5815 9.83168C27.6546 11.4123 27.6696 11.8867 27.6696 15.8898C27.6696 19.8929 27.6546 20.3692 27.5815 21.9498C27.5158 23.4123 27.2702 24.2054 27.0658 24.7342C26.8254 25.3855 26.4415 25.9744 25.9427 26.4573C25.4177 26.9823 24.919 27.3067 24.2177 27.5786C23.6927 27.7848 22.8977 28.0286 21.4333 28.0961C19.8527 28.1673 19.3783 28.1842 15.3733 28.1842C11.3683 28.1842 10.8921 28.1673 9.31146 28.0961C7.84896 28.0286 7.05583 27.7848 6.52708 27.5786C5.87552 27.3384 5.28607 26.9553 4.80208 26.4573C4.30287 25.9736 3.91844 25.3842 3.67708 24.7323C3.47271 24.2054 3.22709 23.4104 3.16146 21.9479C3.09021 20.3673 3.07521 19.8929 3.07521 15.8861C3.07521 11.8811 3.09021 11.4086 3.16146 9.82793C3.22896 8.36543 3.47271 7.57043 3.67896 7.04168C3.95084 6.3423 4.27708 5.84168 4.80208 5.31668C5.32708 4.79168 5.82583 4.4673 6.52708 4.19543C7.05583 3.98918 7.84896 3.74543 9.31146 3.67793C10.6952 3.61418 11.2315 3.59543 14.0271 3.59355V3.5973ZM23.3796 6.0873C23.1432 6.0873 22.9091 6.13386 22.6908 6.22432C22.4724 6.31478 22.2739 6.44737 22.1068 6.61451C21.9396 6.78166 21.8071 6.98009 21.7166 7.19847C21.6261 7.41686 21.5796 7.65093 21.5796 7.8873C21.5796 8.12368 21.6261 8.35775 21.7166 8.57613C21.8071 8.79452 21.9396 8.99295 22.1068 9.1601C22.2739 9.32724 22.4724 9.45983 22.6908 9.55029C22.9091 9.64075 23.1432 9.6873 23.3796 9.6873C23.857 9.6873 24.3148 9.49766 24.6524 9.1601C24.9899 8.82253 25.1796 8.36469 25.1796 7.8873C25.1796 7.40992 24.9899 6.95208 24.6524 6.61451C24.3148 6.27695 23.857 6.0873 23.3796 6.0873ZM15.3733 8.19105C14.3516 8.17511 13.3369 8.36259 12.3883 8.74257C11.4397 9.12255 10.5762 9.68744 9.84799 10.4043C9.11981 11.1213 8.54152 11.9759 8.14679 12.9184C7.75206 13.861 7.54877 14.8726 7.54877 15.8945C7.54877 16.9164 7.75206 17.928 8.14679 18.8706C8.54152 19.8131 9.11981 20.6677 9.84799 21.3846C10.5762 22.1015 11.4397 22.6664 12.3883 23.0464C13.3369 23.4264 14.3516 23.6139 15.3733 23.5979C17.3956 23.5664 19.3244 22.7409 20.7433 21.2996C22.1622 19.8584 22.9575 17.917 22.9575 15.8945C22.9575 13.872 22.1622 11.9306 20.7433 10.4893C19.3244 9.04809 17.3956 8.22261 15.3733 8.19105ZM15.3733 10.8929C16.6996 10.8929 17.9715 11.4198 18.9093 12.3576C19.8471 13.2954 20.374 14.5673 20.374 15.8936C20.374 17.2198 19.8471 18.4917 18.9093 19.4295C17.9715 20.3673 16.6996 20.8942 15.3733 20.8942C14.0471 20.8942 12.7752 20.3673 11.8374 19.4295C10.8996 18.4917 10.3727 17.2198 10.3727 15.8936C10.3727 14.5673 10.8996 13.2954 11.8374 12.3576C12.7752 11.4198 14.0471 10.8929 15.3733 10.8929Z" fill="white"/>
</g>
<defs>
<clipPath id="clip0_232_1653">
<rect width="30" height="30" fill="white" transform="translate(0.37146 0.893555)"/>
</clipPath>
</defs>
</svg>
