<svg width="232" height="232" viewBox="0 0 232 232" fill="none" xmlns="http://www.w3.org/2000/svg">
<path d="M98.7857 67.0841L118.116 176.71C118.713 180.111 118.091 183.615 116.358 186.603C114.626 189.591 111.894 191.872 108.645 193.043C105.396 194.215 101.838 194.202 98.5969 193.007C95.3562 191.813 92.6411 189.513 90.9299 186.513L64.4106 139.148M64.4106 139.148C56.9226 137.415 50.265 133.156 45.5616 127.077C40.8583 120.998 38.3996 113.481 38.6016 105.797C38.8037 98.1139 41.654 90.7363 46.6703 84.913C51.6866 79.0897 58.5608 75.1783 66.1295 73.8407L81.1643 71.1897C114.812 65.2567 141.955 50.0287 152.062 33.3028L172.321 148.197C157.103 135.937 126.397 130.909 92.7408 136.844L77.7061 139.495C73.2972 140.279 68.7739 140.155 64.4106 139.148ZM166.533 115.37C173.063 114.219 178.868 110.521 182.671 105.089C186.474 99.658 187.963 92.9384 186.812 86.4087C185.661 79.879 181.963 74.0741 176.531 70.2711C171.1 66.4681 164.38 64.9784 157.851 66.1297" stroke="white" stroke-width="2" stroke-linecap="round" stroke-linejoin="round"/>
</svg>
