<svg width="31" height="31" viewBox="0 0 31 31" fill="none" xmlns="http://www.w3.org/2000/svg">
<g clip-path="url(#clip0_232_1651)">
<path d="M9.79521 29.0186C21.1165 29.0186 27.3096 19.638 27.3096 11.5174C27.3096 11.2549 27.3096 10.9886 27.2983 10.7261C28.5041 9.85329 29.5447 8.77267 30.3715 7.53488C29.2452 8.03148 28.0516 8.35877 26.8296 8.50613C28.1168 7.7367 29.0809 6.52607 29.5427 5.09926C28.3333 5.81574 27.0096 6.31871 25.6296 6.58613C24.7018 5.59805 23.4741 4.94348 22.1366 4.7238C20.7991 4.50413 19.4266 4.73161 18.2315 5.37102C17.0364 6.01042 16.0855 7.02606 15.5261 8.26062C14.9666 9.49518 14.8299 10.8798 15.1371 12.1999C12.6897 12.0772 10.2955 11.4414 8.10967 10.3338C5.92384 9.22617 3.99524 7.67147 2.44896 5.77051C1.66397 7.12629 1.42441 8.73001 1.77892 10.256C2.13343 11.782 3.05544 13.1159 4.35771 13.9868C3.38185 13.9536 2.42744 13.6916 1.57146 13.2218V13.3061C1.57314 14.7264 2.06516 16.1025 2.96435 17.2019C3.86354 18.3013 5.11474 19.0565 6.50646 19.3399C5.9782 19.4854 5.43252 19.558 4.88459 19.5555C4.4983 19.5567 4.1128 19.5209 3.73333 19.4486C4.12668 20.6712 4.8926 21.7402 5.9238 22.5058C6.955 23.2714 8.19984 23.6952 9.48396 23.718C7.3025 25.4314 4.60784 26.3606 1.83396 26.3561C1.34519 26.3582 0.856753 26.33 0.37146 26.2718C3.1868 28.0666 6.45639 29.0197 9.79521 29.0186Z" fill="white"/>
</g>
<defs>
<clipPath id="clip0_232_1651">
<rect width="30" height="30" fill="white" transform="translate(0.37146 0.893555)"/>
</clipPath>
</defs>
</svg>
