<svg width="31" height="31" viewBox="0 0 31 31" fill="none" xmlns="http://www.w3.org/2000/svg">
<g clip-path="url(#clip0_232_1732)">
<path d="M9.8289 29.0308C21.1502 29.0308 27.3433 19.6502 27.3433 11.5296C27.3433 11.2671 27.3433 11.0008 27.332 10.7383C28.5378 9.8655 29.5784 8.78488 30.4052 7.54709C29.2789 8.04369 28.0853 8.37098 26.8633 8.51834C28.1505 7.74891 29.1146 6.53828 29.5764 5.11147C28.367 5.82795 27.0433 6.33092 25.6633 6.59834C24.7355 5.61026 23.5078 4.95569 22.1703 4.73601C20.8328 4.51634 19.4603 4.74382 18.2652 5.38322C17.0701 6.02263 16.1192 7.03827 15.5597 8.27283C15.0003 9.50739 14.8636 10.892 15.1708 12.2121C12.7234 12.0894 10.3292 11.4536 8.14336 10.346C5.95753 9.23837 4.02893 7.68367 2.48265 5.78272C1.69766 7.1385 1.4581 8.74222 1.81261 10.2682C2.16712 11.7942 3.08913 13.1281 4.3914 13.999C3.41554 13.9658 2.46113 13.7038 1.60515 13.234V13.3183C1.60683 14.7386 2.09885 16.1148 2.99804 17.2141C3.89723 18.3135 5.14843 19.0687 6.54015 19.3521C6.01189 19.4976 5.46621 19.5702 4.91828 19.5677C4.532 19.5689 4.14649 19.5331 3.76703 19.4608C4.16038 20.6834 4.92629 21.7524 5.95749 22.518C6.98869 23.2836 8.23353 23.7074 9.51765 23.7302C7.33619 25.4436 4.64153 26.3729 1.86765 26.3683C1.37888 26.3704 0.890445 26.3422 0.405151 26.284C3.22049 28.0788 6.49008 29.0319 9.8289 29.0308Z" fill="white"/>
</g>
<defs>
<clipPath id="clip0_232_1732">
<rect width="30" height="30" fill="white" transform="translate(0.405151 0.905762)"/>
</clipPath>
</defs>
</svg>
