<svg width="31" height="31" viewBox="0 0 31 31" fill="none" xmlns="http://www.w3.org/2000/svg">
<g clip-path="url(#clip0_232_1579)">
<path d="M9.7335 29.0731C21.0548 29.0731 27.2479 19.6925 27.2479 11.5718C27.2479 11.3093 27.2479 11.0431 27.2366 10.7806C28.4424 9.90774 29.483 8.82711 30.3098 7.58933C29.1835 8.08592 27.9899 8.41321 26.7679 8.56058C28.0551 7.79115 29.0192 6.58052 29.481 5.1537C28.2716 5.87018 26.9479 6.37315 25.5679 6.64058C24.6401 5.6525 23.4124 4.99792 22.0749 4.77825C20.7374 4.55857 19.3649 4.78605 18.1698 5.42546C16.9747 6.06486 16.0238 7.08051 15.4643 8.31507C14.9049 9.54962 14.7682 10.9342 15.0754 12.2543C12.628 12.1316 10.2338 11.4958 8.04796 10.3882C5.86213 9.28061 3.93354 7.72591 2.38725 5.82495C1.60227 7.18073 1.3627 8.78445 1.71721 10.3105C2.07173 11.8364 2.99373 13.1703 4.296 14.0412C3.32014 14.008 2.36573 13.746 1.50975 13.2762V13.3606C1.51144 14.7809 2.00345 16.157 2.90264 17.2564C3.80183 18.3558 5.05303 19.111 6.44475 19.3943C5.9165 19.5399 5.37081 19.6124 4.82288 19.61C4.4366 19.6111 4.05109 19.5753 3.67163 19.5031C4.06498 20.7257 4.83089 21.7946 5.86209 22.5602C6.89329 23.3258 8.13813 23.7497 9.42225 23.7725C7.24079 25.4858 4.54613 26.4151 1.77225 26.4106C1.28348 26.4126 0.795047 26.3845 0.309753 26.3262C3.12509 28.1211 6.39469 29.0741 9.7335 29.0731Z" fill="white"/>
</g>
<defs>
<clipPath id="clip0_232_1579">
<rect width="30" height="30" fill="white" transform="translate(0.309753 0.947998)"/>
</clipPath>
</defs>
</svg>
