<svg width="24" height="24" viewBox="0 0 24 24" fill="none" xmlns="http://www.w3.org/2000/svg">
<path d="M5.12112 17.804C7.21954 16.6179 9.5897 15.9963 12.0001 16C14.5001 16 16.8471 16.655 18.8791 17.804M15.0001 10C15.0001 10.7956 14.6841 11.5587 14.1214 12.1213C13.5588 12.6839 12.7958 13 12.0001 13C11.2045 13 10.4414 12.6839 9.8788 12.1213C9.31619 11.5587 9.00012 10.7956 9.00012 10C9.00012 9.20435 9.31619 8.44129 9.8788 7.87868C10.4414 7.31607 11.2045 7 12.0001 7C12.7958 7 13.5588 7.31607 14.1214 7.87868C14.6841 8.44129 15.0001 9.20435 15.0001 10ZM21.0001 12C21.0001 13.1819 20.7673 14.3522 20.315 15.4442C19.8627 16.5361 19.1998 17.5282 18.3641 18.364C17.5284 19.1997 16.5362 19.8626 15.4443 20.3149C14.3523 20.7672 13.182 21 12.0001 21C10.8182 21 9.6479 20.7672 8.55597 20.3149C7.46404 19.8626 6.47189 19.1997 5.63616 18.364C4.80043 17.5282 4.1375 16.5361 3.68521 15.4442C3.23291 14.3522 3.00012 13.1819 3.00012 12C3.00012 9.61305 3.94833 7.32387 5.63616 5.63604C7.32399 3.94821 9.61317 3 12.0001 3C14.3871 3 16.6763 3.94821 18.3641 5.63604C20.0519 7.32387 21.0001 9.61305 21.0001 12Z" stroke="white" stroke-width="2" stroke-linecap="round" stroke-linejoin="round"/>
</svg>
