<svg width="31" height="25" viewBox="0 0 31 25" fill="none" xmlns="http://www.w3.org/2000/svg">
<path d="M9.99364 24.4222C21.3149 24.4222 27.508 15.0416 27.508 6.92098C27.508 6.65848 27.508 6.39223 27.4968 6.12973C28.7025 5.25689 29.7431 4.17626 30.5699 2.93848C29.4436 3.43507 28.2501 3.76236 27.028 3.90973C28.3153 3.1403 29.2794 1.92967 29.7411 0.502854C28.5317 1.21934 27.208 1.7223 25.828 1.98973C24.9002 1.00165 23.6725 0.347074 22.335 0.127399C20.9976 -0.0922766 19.625 0.135206 18.4299 0.774611C17.2348 1.41402 16.2839 2.42966 15.7245 3.66422C15.1651 4.89878 15.0283 6.28335 15.3355 7.60348C12.8882 7.48076 10.4939 6.84498 8.30809 5.73737C6.12227 4.62976 4.19367 3.07506 2.64739 1.1741C1.8624 2.52988 1.62284 4.13361 1.97735 5.6596C2.33186 7.1856 3.25386 8.51947 4.55614 9.39035C3.58027 9.3572 2.62586 9.09515 1.76989 8.62535V8.70973C1.77157 10.13 2.26359 11.5061 3.16277 12.6055C4.06196 13.7049 5.31316 14.4601 6.70489 14.7435C6.17663 14.889 5.63094 14.9616 5.08301 14.9591C4.69673 14.9603 4.31122 14.9245 3.93176 14.8522C4.32511 16.0748 5.09102 17.1438 6.12222 17.9094C7.15342 18.675 8.39826 19.0988 9.68239 19.1216C7.50093 20.835 4.80626 21.7642 2.03239 21.7597C1.54361 21.7618 1.05518 21.7336 0.569885 21.6754C3.38523 23.4702 6.65482 24.4233 9.99364 24.4222Z" fill="white"/>
</svg>
