<svg width="31" height="30" viewBox="0 0 31 30" fill="none" xmlns="http://www.w3.org/2000/svg">
<path d="M15.5699 0.297241C7.28239 0.297241 0.569885 7.00974 0.569885 15.2972C0.569885 21.9347 4.86363 27.541 10.8261 29.5285C11.5761 29.6597 11.8574 29.2097 11.8574 28.816C11.8574 28.4597 11.8386 27.2785 11.8386 26.0222C8.06989 26.716 7.09489 25.1035 6.79489 24.2597C6.62614 23.8285 5.89489 22.4972 5.25739 22.141C4.73239 21.8597 3.98239 21.166 5.23864 21.1472C6.41989 21.1285 7.26364 22.2347 7.54489 22.6847C8.89489 24.9535 11.0511 24.316 11.9136 23.9222C12.0449 22.9472 12.4386 22.291 12.8699 21.916C9.53239 21.541 6.04489 20.2472 6.04489 14.5097C6.04489 12.8785 6.62614 11.5285 7.58239 10.4785C7.43239 10.1035 6.90739 8.56599 7.73239 6.50349C7.73239 6.50349 8.98864 6.10974 11.8574 8.04099C13.0574 7.70349 14.3324 7.53474 15.6074 7.53474C16.8824 7.53474 18.1574 7.70349 19.3574 8.04099C22.2261 6.09099 23.4824 6.50349 23.4824 6.50349C24.3074 8.56599 23.7824 10.1035 23.6324 10.4785C24.5886 11.5285 25.1699 12.8597 25.1699 14.5097C25.1699 20.266 21.6636 21.541 18.3261 21.916C18.8699 22.3847 19.3386 23.2847 19.3386 24.691C19.3386 26.6972 19.3199 28.3097 19.3199 28.816C19.3199 29.2097 19.6011 29.6785 20.3511 29.5285C23.3291 28.5235 25.9168 26.6098 27.7499 24.0568C29.5831 21.5038 30.5694 18.4402 30.5699 15.2972C30.5699 7.00974 23.8574 0.297241 15.5699 0.297241Z" fill="white"/>
</svg>
