<svg width="31" height="31" viewBox="0 0 31 31" fill="none" xmlns="http://www.w3.org/2000/svg">
<path d="M15.5699 0.297241C11.4993 0.297241 10.9874 0.315991 9.38801 0.387241C7.78864 0.462241 6.69926 0.713491 5.74489 1.08474C4.74381 1.46128 3.83706 2.05192 3.08801 2.81537C2.32503 3.5648 1.73446 4.47144 1.35739 5.47224C0.986135 6.42474 0.73301 7.51599 0.659885 9.10974C0.588635 10.7129 0.569885 11.2229 0.569885 15.2991C0.569885 19.3716 0.588635 19.8816 0.659885 21.481C0.734885 23.0785 0.986135 24.1679 1.35739 25.1222C1.74176 26.1085 2.25364 26.9447 3.08801 27.7791C3.92051 28.6135 4.75676 29.1272 5.74301 29.5097C6.69926 29.881 7.78676 30.1341 9.38426 30.2072C10.9855 30.2785 11.4955 30.2972 15.5699 30.2972C19.6443 30.2972 20.1524 30.2785 21.7536 30.2072C23.3493 30.1322 24.4424 29.881 25.3968 29.5097C26.3972 29.133 27.3033 28.5424 28.0518 27.7791C28.8861 26.9447 29.398 26.1085 29.7824 25.1222C30.1518 24.1679 30.4049 23.0785 30.4799 21.481C30.5511 19.8816 30.5699 19.3716 30.5699 15.2972C30.5699 11.2229 30.5511 10.7129 30.4799 9.11162C30.4049 7.51599 30.1518 6.42474 29.7824 5.47224C29.4054 4.47141 28.8148 3.56476 28.0518 2.81537C27.3029 2.05163 26.3961 1.46095 25.3949 1.08474C24.4386 0.713491 23.3474 0.460366 21.7518 0.387241C20.1505 0.315991 19.6424 0.297241 15.5661 0.297241H15.5718H15.5699ZM14.2255 3.00099H15.5718C19.5768 3.00099 20.0511 3.01412 21.6318 3.08724C23.0943 3.15287 23.8893 3.39849 24.418 3.60287C25.1174 3.87474 25.618 4.20099 26.143 4.72599C26.668 5.25099 26.9924 5.74974 27.2643 6.45099C27.4705 6.97787 27.7143 7.77287 27.7799 9.23537C27.853 10.816 27.868 11.2904 27.868 15.2935C27.868 19.2966 27.853 19.7729 27.7799 21.3535C27.7143 22.816 27.4686 23.6091 27.2643 24.1379C27.0238 24.7892 26.6399 25.3781 26.1411 25.861C25.6161 26.386 25.1174 26.7104 24.4161 26.9822C23.8911 27.1885 23.0961 27.4322 21.6318 27.4997C20.0511 27.571 19.5768 27.5879 15.5718 27.5879C11.5668 27.5879 11.0905 27.571 9.50989 27.4997C8.04739 27.4322 7.25426 27.1885 6.72551 26.9822C6.07395 26.7421 5.4845 26.359 5.00051 25.861C4.50129 25.3773 4.11687 24.7878 3.87551 24.136C3.67114 23.6091 3.42551 22.8141 3.35989 21.3516C3.28864 19.771 3.27364 19.2966 3.27364 15.2897C3.27364 11.2847 3.28864 10.8122 3.35989 9.23162C3.42739 7.76912 3.67114 6.97412 3.87739 6.44537C4.14926 5.74599 4.47551 5.24537 5.00051 4.72037C5.52551 4.19537 6.02426 3.87099 6.72551 3.59912C7.25426 3.39287 8.04739 3.14912 9.50989 3.08162C10.8936 3.01787 11.4299 2.99912 14.2255 2.99724V3.00099ZM23.578 5.49099C23.3416 5.49099 23.1076 5.53755 22.8892 5.62801C22.6708 5.71847 22.4724 5.85105 22.3052 6.0182C22.1381 6.18534 22.0055 6.38378 21.915 6.60216C21.8246 6.82055 21.778 7.05461 21.778 7.29099C21.778 7.52737 21.8246 7.76143 21.915 7.97982C22.0055 8.19821 22.1381 8.39664 22.3052 8.56378C22.4724 8.73093 22.6708 8.86352 22.8892 8.95397C23.1076 9.04443 23.3416 9.09099 23.578 9.09099C24.0554 9.09099 24.5132 8.90135 24.8508 8.56378C25.1884 8.22622 25.378 7.76838 25.378 7.29099C25.378 6.8136 25.1884 6.35576 24.8508 6.0182C24.5132 5.68063 24.0554 5.49099 23.578 5.49099ZM15.5718 7.59474C14.55 7.5788 13.5353 7.76628 12.5867 8.14626C11.6381 8.52623 10.7746 9.09112 10.0464 9.80804C9.31823 10.5249 8.73994 11.3796 8.34521 12.3221C7.95048 13.2647 7.7472 14.2763 7.7472 15.2982C7.7472 16.32 7.95048 17.3317 8.34521 18.2743C8.73994 19.2168 9.31823 20.0714 10.0464 20.7883C10.7746 21.5052 11.6381 22.0701 12.5867 22.4501C13.5353 22.8301 14.55 23.0176 15.5718 23.0016C17.594 22.9701 19.5228 22.1446 20.9417 20.7033C22.3606 19.2621 23.1559 17.3207 23.1559 15.2982C23.1559 13.2757 22.3606 11.3343 20.9417 9.89302C19.5228 8.45178 17.594 7.62629 15.5718 7.59474ZM15.5718 10.2966C16.898 10.2966 18.1699 10.8235 19.1077 11.7613C20.0455 12.6991 20.5724 13.971 20.5724 15.2972C20.5724 16.6235 20.0455 17.8954 19.1077 18.8332C18.1699 19.771 16.898 20.2979 15.5718 20.2979C14.2455 20.2979 12.9736 19.771 12.0358 18.8332C11.098 17.8954 10.5711 16.6235 10.5711 15.2972C10.5711 13.971 11.098 12.6991 12.0358 11.7613C12.9736 10.8235 14.2455 10.2966 15.5718 10.2966Z" fill="white"/>
</svg>
