<svg width="48" height="48" viewBox="0 0 48 48" fill="none" xmlns="http://www.w3.org/2000/svg">
<path d="M16.7646 23.9851L21.7646 28.9851L31.7646 18.9851M46.7646 23.9851C46.7646 26.9398 46.1827 29.8657 45.0519 32.5955C43.9212 35.3253 42.2639 37.8057 40.1745 39.895C38.0852 41.9843 35.6049 43.6417 32.875 44.7724C30.1452 45.9031 27.2194 46.4851 24.2646 46.4851C21.3099 46.4851 18.3841 45.9031 15.6543 44.7724C12.9244 43.6417 10.4441 41.9843 8.35475 39.895C6.26543 37.8057 4.60809 35.3253 3.47736 32.5955C2.34663 29.8657 1.76465 26.9398 1.76465 23.9851C1.76465 18.0177 4.13518 12.2948 8.35475 8.0752C12.5743 3.85564 18.2973 1.48511 24.2646 1.48511C30.232 1.48511 35.955 3.85564 40.1745 8.0752C44.3941 12.2948 46.7646 18.0177 46.7646 23.9851Z" stroke="black" stroke-width="2" stroke-linecap="round" stroke-linejoin="round"/>
</svg>
