<svg width="48" height="48" viewBox="0 0 48 48" fill="none" xmlns="http://www.w3.org/2000/svg">
<path d="M16.7929 24.1454L21.7929 29.1454L31.7929 19.1454M46.7929 24.1454C46.7929 27.1002 46.2109 30.026 45.0802 32.7558C43.9494 35.4856 42.2921 37.966 40.2028 40.0553C38.1135 42.1447 35.6331 43.802 32.9033 44.9327C30.1734 46.0635 27.2476 46.6454 24.2929 46.6454C21.3381 46.6454 18.4123 46.0635 15.6825 44.9327C12.9527 43.802 10.4723 42.1447 8.38297 40.0553C6.29366 37.966 4.63632 35.4856 3.50559 32.7558C2.37486 30.026 1.79288 27.1002 1.79288 24.1454C1.79288 18.1781 4.16341 12.4551 8.38297 8.23554C12.6025 4.01598 18.3255 1.64545 24.2929 1.64545C30.2602 1.64545 35.9832 4.01598 40.2028 8.23554C44.4223 12.4551 46.7929 18.1781 46.7929 24.1454Z" stroke="black" stroke-width="2" stroke-linecap="round" stroke-linejoin="round"/>
</svg>
