<svg width="26" height="26" viewBox="0 0 26 26" fill="none" xmlns="http://www.w3.org/2000/svg">
<path d="M11.0239 1.70411C11.5284 0.0872377 13.7193 0.0872377 14.222 1.70411L16.0211 7.48341C16.131 7.83538 16.3447 8.14206 16.6316 8.35961C16.9185 8.57717 17.2639 8.69447 17.6185 8.69474H23.4395C25.0688 8.69474 25.7448 10.8716 24.4282 11.8723L19.7202 15.4431C19.4328 15.6609 19.2187 15.968 19.1088 16.3206C18.9988 16.6732 18.9986 17.0531 19.1082 17.4058L20.9073 23.1851C21.4117 24.802 19.6379 26.1485 18.3179 25.1478L13.61 21.577C13.3228 21.3593 12.977 21.2421 12.6221 21.2421C12.2673 21.2421 11.9215 21.3593 11.6343 21.577L6.92632 25.1478C5.60809 26.1485 3.83587 24.802 4.33861 23.1851L6.13773 17.4058C6.24732 17.0531 6.24712 16.6732 6.13717 16.3206C6.02722 15.968 5.81317 15.6609 5.5257 15.4431L0.819404 11.8741C-0.497147 10.8734 0.180465 8.6965 1.80808 8.6965H7.62747C7.98233 8.6966 8.32812 8.57947 8.61535 8.36189C8.90257 8.1443 9.1165 7.83742 9.2265 7.48516L11.0256 1.70586L11.0239 1.70411Z" fill="#FFD700"/>
</svg>
