<svg width="48" height="48" viewBox="0 0 48 48" fill="none" xmlns="http://www.w3.org/2000/svg">
<path d="M16.3876 24.1454L21.3876 29.1454L31.3876 19.1454M46.3876 24.1454C46.3876 27.1002 45.8056 30.026 44.6749 32.7558C43.5441 35.4856 41.8868 37.966 39.7975 40.0553C37.7082 42.1447 35.2278 43.802 32.498 44.9327C29.7681 46.0635 26.8423 46.6454 23.8876 46.6454C20.9328 46.6454 18.007 46.0635 15.2772 44.9327C12.5474 43.802 10.067 42.1447 7.97767 40.0553C5.88835 37.966 4.23101 35.4856 3.10028 32.7558C1.96955 30.026 1.38757 27.1002 1.38757 24.1454C1.38757 18.1781 3.7581 12.4551 7.97767 8.23554C12.1972 4.01598 17.9202 1.64545 23.8876 1.64545C29.8549 1.64545 35.5779 4.01598 39.7975 8.23554C44.017 12.4551 46.3876 18.1781 46.3876 24.1454Z" stroke="black" stroke-width="2" stroke-linecap="round" stroke-linejoin="round"/>
</svg>
