<svg width="23" height="24" viewBox="0 0 23 24" fill="none" xmlns="http://www.w3.org/2000/svg">
<path d="M18.5 8.99084V12.4908M18.5 12.4908V15.9908M18.5 12.4908H22M18.5 12.4908H15M12.6667 6.65751C12.6667 7.89519 12.175 9.08217 11.2998 9.95734C10.4247 10.8325 9.23768 11.3242 8 11.3242C6.76232 11.3242 5.57534 10.8325 4.70017 9.95734C3.825 9.08217 3.33333 7.89519 3.33333 6.65751C3.33333 5.41983 3.825 4.23285 4.70017 3.35768C5.57534 2.48251 6.76232 1.99084 8 1.99084C9.23768 1.99084 10.4247 2.48251 11.2998 3.35768C12.175 4.23285 12.6667 5.41983 12.6667 6.65751ZM1 21.8242C1 19.9677 1.7375 18.1872 3.05025 16.8744C4.36301 15.5617 6.14348 14.8242 8 14.8242C9.85652 14.8242 11.637 15.5617 12.9497 16.8744C14.2625 18.1872 15 19.9677 15 21.8242V22.9908H1V21.8242Z" stroke="white" stroke-width="2" stroke-linecap="round" stroke-linejoin="round"/>
</svg>
