<svg width="48" height="48" viewBox="0 0 48 48" fill="none" xmlns="http://www.w3.org/2000/svg">
<path d="M16.2646 23.9851L21.2646 28.9851L31.2646 18.9851M46.2646 23.9851C46.2646 26.9398 45.6827 29.8657 44.5519 32.5955C43.4212 35.3253 41.7639 37.8057 39.6745 39.895C37.5852 41.9843 35.1049 43.6417 32.375 44.7724C29.6452 45.9031 26.7194 46.4851 23.7646 46.4851C20.8099 46.4851 17.8841 45.9031 15.1543 44.7724C12.4244 43.6417 9.94406 41.9843 7.85475 39.895C5.76543 37.8057 4.10809 35.3253 2.97736 32.5955C1.84663 29.8657 1.26465 26.9398 1.26465 23.9851C1.26465 18.0177 3.63518 12.2948 7.85475 8.0752C12.0743 3.85564 17.7973 1.48511 23.7646 1.48511C29.732 1.48511 35.455 3.85564 39.6745 8.0752C43.8941 12.2948 46.2646 18.0177 46.2646 23.9851Z" stroke="black" stroke-width="2" stroke-linecap="round" stroke-linejoin="round"/>
</svg>
